<svg width="19" height="20" viewBox="0 0 19 20" fill="none" xmlns="http://www.w3.org/2000/svg">
<g clip-path="url(#clip0_1_32)">
<path d="M4.11377 11.8998L9.20045 16.8787C9.27993 16.9564 9.38767 17 9.5 17C9.61233 17 9.72007 16.9564 9.79955 16.8787L14.8862 11.8998C14.9611 11.8211 15.0019 11.7171 14.9999 11.6096C14.998 11.5021 14.9535 11.3996 14.8758 11.3236C14.7982 11.2475 14.6934 11.204 14.5836 11.2021C14.4738 11.2002 14.3675 11.2401 14.2871 11.3134L9.92389 15.5835V4.41491C9.92389 4.30487 9.87923 4.19933 9.79974 4.12152C9.72024 4.04371 9.61242 4 9.5 4C9.38758 4 9.27976 4.04371 9.20026 4.12152C9.12077 4.19933 9.07611 4.30487 9.07611 4.41491V15.5835L4.71287 11.3134C4.63251 11.2401 4.52623 11.2002 4.41641 11.2021C4.3066 11.204 4.20182 11.2475 4.12415 11.3236C4.04649 11.3996 4.002 11.5021 4.00007 11.6096C3.99813 11.7171 4.03889 11.8211 4.11377 11.8998Z" fill="#BEBEBE"/>
</g>
<defs>
<clipPath id="clip0_1_32">
<rect width="19" height="19" fill="white" transform="translate(0 0.5)"/>
</clipPath>
</defs>
</svg>
